<?xml version="1.0" standalone="no"?>
<!DOCTYPE svg PUBLIC "-//W3C//DTD SVG 20010904//EN"
 "http://www.w3.org/TR/2001/REC-SVG-20010904/DTD/svg10.dtd">
<svg version="1.0" xmlns="http://www.w3.org/2000/svg"
 width="736.000000pt" height="736.000000pt" viewBox="0 0 736.000000 736.000000"
 preserveAspectRatio="xMidYMid meet">
<metadata>
Created by potrace 1.14, written by Peter Selinger 2001-2017
</metadata>
<g transform="translate(0.000000,736.000000) scale(0.100000,-0.100000)"
fill="#000000" stroke="none">
<path d="M2 7098 l3 -263 95 -37 c52 -21 106 -43 120 -49 14 -7 32 -13 40 -15
36 -6 182 -72 169 -76 -8 -3 0 -5 16 -5 17 0 73 -12 125 -25 52 -14 128 -29
167 -33 40 -4 71 -10 69 -14 -2 -3 53 -7 123 -9 69 -2 138 -4 154 -6 15 -1
128 -3 251 -4 l223 -2 -8 -47 c-14 -74 7 -237 56 -435 25 -98 42 -186 39 -195
-5 -15 -4 -15 4 -4 8 11 14 1 27 -42 9 -31 18 -68 21 -83 5 -27 68 -224 83
-259 13 -29 68 -196 96 -292 14 -46 54 -170 89 -275 67 -203 84 -264 70 -255
-15 8 -126 -13 -172 -33 -48 -22 -118 -79 -161 -134 -16 -19 -31 -33 -35 -29
-3 3 -6 1 -6 -7 0 -10 -4 -10 -17 1 -16 13 -17 12 -5 -3 12 -15 7 -26 -38 -85
-29 -37 -56 -67 -62 -65 -5 1 -7 -2 -4 -7 5 -7 -27 -68 -84 -161 -26 -42 -70
-124 -70 -131 0 -4 30 -9 67 -11 54 -2 87 3 168 29 55 18 114 32 130 31 24 -1
26 -2 7 -5 -13 -3 -69 -20 -125 -40 -88 -30 -112 -34 -179 -32 -70 3 -80 1
-103 -21 -14 -13 -25 -18 -25 -11 0 7 -5 9 -11 5 -8 -5 -8 -9 1 -14 9 -6 9
-13 1 -29 -7 -11 -16 -21 -21 -21 -5 0 -14 -16 -22 -36 -12 -34 -14 -35 -53
-30 -22 3 -32 3 -22 0 9 -3 17 -7 17 -9 0 -13 -50 -53 -73 -59 -18 -4 -39 -25
-64 -62 l-37 -56 21 -17 c26 -21 83 -127 83 -153 0 -17 -5 -19 -47 -12 -57 8
-63 11 -63 30 0 18 -31 79 -64 129 -24 35 -30 63 -40 197 -5 66 -10 78 -35 78
-18 0 -68 -49 -103 -100 -15 -22 -17 -23 -17 -6 -1 10 -14 73 -30 140 -16 67
-37 155 -47 196 -42 187 -128 517 -168 645 -120 386 -148 467 -188 553 -17 35
-31 74 -32 87 0 13 -4 21 -9 18 -4 -2 -7 0 -7 5 0 5 -13 24 -29 43 -16 18 -27
38 -24 44 4 5 3 7 -1 3 -4 -3 -19 0 -34 8 -23 12 -26 19 -23 57 3 47 22 113
33 112 3 0 10 4 15 9 5 5 3 6 -5 2 -18 -11 -8 42 31 164 31 100 47 134 85 188
24 32 87 72 117 72 8 0 15 5 15 10 0 14 -56 13 -83 -1 -50 -27 -82 -65 -120
-142 -22 -45 -41 -89 -43 -97 -1 -8 -11 -41 -23 -73 -11 -33 -27 -93 -36 -135
-8 -43 -23 -117 -33 -165 -10 -49 -21 -85 -26 -80 -5 4 -5 -6 -2 -24 4 -17 2
-50 -4 -73 -6 -23 -14 -61 -16 -84 -3 -22 -14 -77 -24 -122 -11 -44 -28 -143
-39 -220 -21 -137 -21 -174 -21 -2536 l0 -2398 785 0 c432 0 785 3 785 8 0 4
-54 40 -121 81 -167 102 -233 159 -253 218 -21 60 -20 74 5 196 36 177 101
299 178 329 150 59 573 81 871 45 544 -67 953 -146 1183 -229 122 -45 232
-132 307 -247 31 -45 112 -281 125 -358 l7 -43 429 0 c416 0 429 1 420 19 -25
46 -172 244 -229 308 -80 89 -203 181 -282 210 -67 25 -200 49 -324 58 -44 3
-81 7 -83 9 -3 2 17 12 44 22 26 9 86 32 133 50 144 54 266 77 378 72 141 -8
229 -35 607 -189 85 -34 115 -37 115 -9 0 21 -38 66 -48 56 -3 -3 5 -17 18
-31 13 -14 21 -27 18 -30 -3 -3 -85 28 -184 69 -278 114 -432 156 -580 156
-104 0 -284 -49 -450 -122 l-92 -40 -133 46 c-74 25 -154 48 -179 51 -25 4
-54 8 -66 10 -46 10 -173 326 -227 567 l-24 107 21 6 c57 16 356 16 598 1 141
-10 272 -14 291 -11 26 5 61 -2 143 -31 97 -34 120 -38 206 -39 89 0 98 2 124
25 52 48 158 304 200 485 9 39 16 113 16 168 0 91 -3 104 -35 171 -20 43 -55
94 -83 122 -115 118 -131 142 -144 212 -7 37 -29 139 -50 228 -36 150 -38 164
-25 200 17 47 19 154 4 226 -28 134 -128 367 -204 473 l-35 50 27 22 c16 13
33 23 40 23 6 0 72 -58 145 -129 129 -124 187 -176 260 -233 41 -31 89 -100
154 -224 26 -49 62 -109 80 -134 38 -54 78 -136 99 -205 16 -55 21 -290 6
-313 -16 -26 -32 46 -20 90 8 30 7 57 -5 112 -16 77 -52 182 -66 191 -10 6 -4
-20 21 -100 20 -62 40 -195 30 -195 -3 0 -19 34 -34 75 -16 41 -32 75 -38 75
-13 0 -11 -11 15 -81 73 -194 130 -399 161 -579 9 -52 23 -124 30 -160 7 -36
19 -92 25 -125 9 -45 23 -74 55 -117 24 -31 50 -69 59 -86 27 -52 49 -252 28
-252 -25 0 -337 448 -373 536 -13 30 -26 54 -31 54 -53 0 168 -338 453 -691
277 -344 371 -534 389 -782 5 -65 7 -133 5 -150 -2 -18 -9 -81 -15 -142 -6
-60 -13 -120 -16 -132 -6 -32 21 -30 109 8 40 17 77 32 82 33 6 2 27 10 47 20
21 9 41 16 44 16 4 0 37 13 73 29 36 16 179 73 316 127 138 54 287 114 332
135 l83 38 26 -86 c14 -47 22 -89 17 -93 -9 -8 -180 -69 -358 -128 -66 -22
-164 -56 -219 -76 -54 -19 -103 -33 -109 -29 -6 3 -7 1 -3 -5 12 -20 51 -13
178 31 68 24 159 55 203 69 44 14 139 47 210 73 72 26 186 66 255 89 69 24
183 73 253 110 70 36 136 66 147 66 10 0 22 5 26 12 7 12 -30 7 -70 -8 -19 -7
-19 -2 -13 132 7 166 31 325 60 403 20 53 21 76 24 460 l3 403 -62 -7 c-232
-24 -268 -73 -540 -730 -29 -70 -51 -204 -31 -192 5 3 10 23 11 43 1 21 11 67
24 103 l22 66 17 -85 c18 -88 45 -170 123 -378 26 -68 44 -127 40 -133 -9 -16
-117 -60 -124 -52 -4 5 -17 37 -28 73 -11 36 -41 119 -67 185 l-47 120 6 100
c9 142 40 272 137 558 95 284 114 315 231 391 22 14 232 66 269 66 18 0 19 25
19 770 l0 770 -24 0 c-57 0 -166 77 -166 117 0 24 15 31 23 11 3 -8 6 -6 6 5
1 12 9 17 29 17 21 0 30 7 41 33 18 38 27 48 64 64 37 17 36 51 -3 85 -38 33
-38 42 0 58 l30 12 0 219 c0 197 -2 219 -17 228 -17 10 -17 10 0 11 16 0 17
66 17 1239 l0 1238 -57 25 c-49 21 -73 25 -148 24 -66 -1 -89 -4 -87 -13 4
-22 -78 -15 -143 12 -71 29 -81 30 -89 9 -5 -13 -14 -15 -44 -9 -20 4 -39 10
-42 14 -8 11 -61 29 -109 37 l-44 6 6 -30 c7 -34 -10 -55 -39 -50 -9 2 -19 -2
-21 -8 -2 -6 37 -31 87 -55 49 -24 90 -47 90 -51 0 -4 -22 -8 -49 -8 -35 0
-82 13 -162 45 -62 25 -115 45 -117 45 -2 0 -1 -7 2 -16 3 -9 -16 3 -44 26
-47 40 -55 51 -50 75 1 5 -2 7 -5 3 -7 -7 -107 43 -130 63 -5 5 -20 9 -34 9
-46 0 -14 10 45 14 32 2 132 10 222 16 204 16 259 11 286 -22 36 -44 167 -91
182 -67 3 5 0 9 -5 9 -6 0 -11 7 -11 15 0 22 38 19 115 -11 38 -14 82 -23 99
-22 28 4 23 8 -54 44 -47 22 -98 44 -115 49 l-30 8 40 8 c64 13 128 10 159 -6
15 -8 35 -15 42 -15 8 0 14 -4 14 -8 0 -5 30 -14 68 -22 37 -7 81 -19 99 -27
60 -24 73 -19 73 32 0 33 -4 45 -15 45 -8 0 -15 4 -15 9 0 5 -8 12 -17 14 -10
3 -3 5 15 6 l32 1 0 140 0 140 -3680 0 -3680 0 2 -262z m6075 -108 c14 -11 30
-20 35 -20 5 0 24 -16 41 -35 17 -19 35 -35 41 -35 18 0 33 -14 40 -37 7 -21
4 -23 -26 -23 -19 0 -38 4 -43 9 -17 15 -83 21 -89 8 -2 -7 -5 -5 -5 4 -1 17
-7 19 -104 19 -62 0 -67 1 -54 15 9 8 22 15 29 16 10 0 -85 37 -100 39 -2 0 0
5 3 10 3 6 -4 10 -17 11 -22 0 -22 1 -3 9 16 6 10 9 -25 13 -25 2 -6 4 43 3
48 0 87 2 87 5 0 4 27 7 61 8 47 1 66 -3 86 -19z m-370 -13 c-16 -7 -51 -10
-80 -7 l-52 4 55 7 c30 3 66 6 80 7 25 1 25 1 -3 -11z m-187 -7 c0 -5 -7 -7
-15 -4 -10 4 -15 0 -13 -12 4 -47 -1 -51 -54 -56 -54 -6 -81 -1 -74 11 5 8
-74 -2 -111 -14 -15 -5 -23 -3 -23 4 0 6 11 11 25 11 14 0 25 5 25 11 0 6 -6
9 -14 6 -8 -3 -43 -9 -78 -13 -54 -7 -59 -9 -33 -15 22 -5 14 -7 -30 -7 -47 0
-54 2 -30 8 29 7 29 8 -10 10 l-40 2 60 19 c33 10 74 19 90 19 198 4 269 8
273 19 4 13 52 15 52 1z m37 4 c-3 -3 -12 -4 -19 -1 -8 3 -5 6 6 6 11 1 17 -2
13 -5z m-862 -94 c-3 -5 1 -10 9 -10 9 0 16 -4 16 -9 0 -12 -50 -7 -58 6 -4 5
-14 13 -22 16 -8 3 2 6 23 6 23 1 36 -3 32 -9z m135 0 c0 -9 -32 -30 -45 -30
-4 0 -5 7 -1 15 3 9 0 15 -9 15 -8 0 -15 -4 -15 -10 0 -5 -7 -10 -15 -10 -16
0 -20 12 -8 23 10 11 93 8 93 -3z m127 -26 c-3 -3 -12 -4 -19 -1 -8 3 -5 6 6
6 11 1 17 -2 13 -5z m208 -25 c11 -17 -1 -21 -15 -4 -8 9 -8 15 -2 15 6 0 14
-5 17 -11z m2069 -25 c9 -3 16 -10 16 -14 0 -10 -38 -1 -46 11 -6 10 7 12 30
3z m-774 -47 c0 -6 -9 -2 -20 8 -11 10 -20 23 -20 28 0 6 9 2 20 -8 11 -10 20
-23 20 -28z m-1901 7 c2 -2 -7 -4 -22 -4 -14 0 -29 5 -32 10 -6 10 42 4 54 -6z
m144 -51 c9 -3 17 -9 17 -14 0 -12 -2 -12 -38 7 -34 16 -45 31 -14 19 9 -4 25
-10 35 -12z m483 -37 c3 -8 11 -13 18 -10 7 3 19 -2 26 -11 7 -8 19 -15 26
-15 8 0 11 -6 8 -15 -4 -8 -12 -15 -20 -15 -8 0 -14 7 -14 15 0 9 -9 15 -21
15 -22 0 -49 22 -49 39 0 16 20 13 26 -3z m1368 -15 c3 -5 20 -11 38 -14 18
-3 51 -10 73 -16 22 -5 72 -15 112 -20 40 -6 103 -25 140 -42 119 -54 128 -58
147 -61 11 -2 21 -9 24 -17 3 -10 0 -12 -14 -7 -11 4 -44 14 -74 22 -30 8 -73
23 -95 33 -87 42 -118 53 -140 47 -29 -7 -24 -32 8 -42 12 -4 27 -12 34 -19
12 -13 11 -13 -105 -15 -13 0 -32 -4 -41 -10 -15 -7 -25 -2 -53 28 -42 46 -78
104 -78 126 0 17 15 22 24 7z m-1267 -23 c-3 -8 -6 -5 -6 6 -1 11 2 17 5 13 3
-3 4 -12 1 -19z m73 -65 c-1 -24 -2 -26 -11 -10 -5 9 -7 22 -4 27 10 17 15 11
15 -17z m-40 8 c0 -6 -4 -13 -10 -16 -5 -3 -10 1 -10 9 0 9 5 16 10 16 6 0 10
-4 10 -9z m1633 -144 c9 -1 17 -4 17 -8 0 -12 -101 -15 -111 -3 -15 18 4 26
41 19 19 -4 43 -7 53 -8z m-4489 -31 c57 -15 73 -36 27 -36 -38 0 -82 20 -74
33 4 6 0 8 -11 4 -10 -4 -15 -3 -11 3 8 12 8 12 69 -4z m4612 -83 c22 -9 41
-17 44 -18 32 -8 80 -37 80 -49 0 -9 8 -16 19 -16 10 0 21 -7 25 -15 4 -11 -1
-15 -17 -15 -28 0 -71 29 -47 31 15 1 -5 7 -84 28 -22 5 -52 19 -67 30 -16 12
-33 21 -39 21 -6 0 -8 5 -5 10 9 15 48 12 91 -7z m-223 -40 c-7 -2 -19 -2 -25
0 -7 3 -2 5 12 5 14 0 19 -2 13 -5z m21 -86 c15 -11 22 -29 25 -62 1 -5 6 -3
12 5 9 12 10 12 5 -3 -3 -10 -6 -23 -6 -28 0 -5 -9 -1 -20 8 -11 10 -20 21
-20 25 0 5 -9 17 -20 28 -35 35 -16 56 24 27z m211 -98 c14 -14 -16 -10 -50 6
l-30 15 35 -6 c19 -3 39 -10 45 -15z m112 -39 c14 -11 23 -20 19 -20 -12 0
-76 29 -76 34 0 13 34 5 57 -14z m-95 -86 c49 -25 145 -110 135 -121 -3 -3
-22 -5 -41 -5 -19 0 -35 -3 -35 -6 1 -4 -2 -17 -6 -29 -6 -18 -14 -21 -47 -20
-39 2 -41 4 -74 67 -19 36 -43 79 -53 95 -10 17 -17 33 -15 36 9 16 90 6 136
-17z m-4625 -260 c-3 -3 12 -16 35 -28 22 -12 48 -32 56 -44 14 -21 14 -23 -6
-29 -32 -8 -27 -21 13 -37 19 -8 35 -17 35 -18 0 -6 -69 1 -133 14 l-57 11 2
41 c2 23 7 44 13 48 6 5 4 8 -5 8 -10 0 -7 7 10 20 23 18 52 29 37 14z m-62
-564 c3 -5 1 -10 -4 -10 -6 0 -11 5 -11 10 0 6 2 10 4 10 3 0 8 -4 11 -10z
m160 -10 c3 -5 1 -10 -4 -10 -6 0 -11 5 -11 10 0 6 2 10 4 10 3 0 8 -4 11 -10z
m-25 -10 c0 -5 -17 -10 -37 -9 -34 1 -35 2 -13 9 36 11 50 11 50 0z m450 -67
c0 -13 3 -13 15 -3 13 10 15 9 15 -8 0 -12 -4 -23 -9 -26 -14 -9 -34 -201 -29
-270 7 -86 57 -176 97 -176 10 0 5 10 -16 33 -54 57 -67 110 -59 243 4 64 11
126 16 138 7 19 9 18 23 -14 9 -19 26 -79 38 -134 20 -92 20 -129 3 -193 -4
-14 -2 -23 5 -23 6 0 13 11 17 25 3 14 9 25 13 25 4 0 21 -28 37 -62 16 -34
44 -85 63 -113 33 -48 35 -54 32 -130 -3 -128 38 -297 83 -334 20 -17 23 -11
30 97 9 120 17 172 27 172 5 0 9 -28 9 -62 0 -70 25 -175 60 -256 23 -52 64
-97 81 -86 5 3 9 35 10 72 1 37 4 78 8 92 4 14 7 -32 7 -101 l-1 -126 -48 -26
c-26 -15 -54 -27 -62 -27 -8 0 -38 24 -67 53 -29 29 -71 66 -93 82 -110 81
-198 161 -222 203 -25 43 -27 55 -31 192 l-4 147 26 26 c25 25 37 65 16 52 -5
-3 -10 -12 -10 -20 0 -26 -40 -28 -67 -3 -60 56 -98 192 -88 318 9 111 25 202
42 228 15 24 33 21 33 -5z m3460 -232 c0 -22 -42 -41 -48 -22 -2 6 -17 11 -32
11 -52 0 -42 19 12 23 29 2 56 4 61 5 4 1 7 -7 7 -17z m-1437 -85 c16 -41 -60
-219 -138 -323 -26 -35 -50 -63 -54 -63 -4 0 -12 21 -18 47 -12 51 -3 86 21
77 7 -3 18 1 23 8 11 13 66 116 117 216 27 53 40 63 49 38z m-2123 -25 c0 -13
-67 -23 -93 -14 -18 6 -12 9 28 14 28 3 53 7 58 7 4 1 7 -2 7 -7z m2594 -282
c35 -16 31 -57 -6 -78 -15 -9 -28 -23 -28 -32 0 -9 -7 -20 -16 -23 -8 -3 -13
-2 -10 3 3 5 -7 14 -22 20 -15 6 -33 20 -40 31 -10 16 -8 21 7 32 10 7 21 23
25 36 8 25 48 30 90 11z m1226 -5 c0 -2 -9 -4 -20 -4 -11 0 -20 4 -20 9 0 5 9
7 20 4 11 -3 20 -7 20 -9z m-47 -113 c25 -10 57 -37 57 -49 0 -8 -44 -28 -80
-37 -59 -14 -116 40 -82 78 17 19 66 23 105 8z m-978 -33 c53 -20 55 -22 34
-31 -43 -16 -168 20 -154 44 10 15 60 10 120 -13z m1603 -12 c15 -9 10 -40
-17 -99 -12 -25 -21 -51 -21 -57 0 -6 -14 -32 -31 -57 -27 -39 -32 -54 -30
-98 1 -45 -1 -53 -16 -51 -10 0 -19 -7 -21 -19 -2 -11 -10 -27 -18 -36 -8 -9
-11 -19 -7 -22 3 -4 -1 -15 -9 -24 -8 -10 -18 -27 -22 -37 -5 -14 -10 -16 -18
-8 -6 6 -16 8 -23 5 -8 -2 -18 4 -24 15 -11 21 -5 52 10 52 5 0 9 13 9 29 0
21 6 32 20 36 13 4 20 15 20 32 0 18 4 24 15 19 18 -6 21 19 3 30 -8 5 -6 11
7 20 12 9 16 20 11 38 -7 27 21 88 86 187 10 14 15 29 12 32 -19 19 37 30 64
13z m-1923 -38 c48 -14 65 -26 65 -44 0 -10 -14 -14 -50 -14 -27 0 -50 -4 -50
-10 0 -5 -12 -10 -27 -11 -27 -1 -27 -1 7 -15 72 -30 108 -49 104 -55 -7 -12
-118 2 -178 22 -73 25 -86 34 -86 63 0 28 18 46 47 46 13 0 23 6 23 14 0 8 6
17 13 19 16 7 82 -1 132 -15z m-230 -202 c12 5 16 4 11 -4 -3 -6 -2 -13 4 -17
13 -8 13 -25 0 -25 -6 0 -27 7 -48 16 -35 15 -36 16 -18 30 13 9 22 10 26 4 4
-6 15 -8 25 -4z m-3329 -33 c9 -21 28 -65 44 -98 148 -317 308 -698 282 -670
-5 6 -37 73 -70 150 -220 507 -275 627 -279 605 -1 -8 -7 -55 -12 -105 -10
-90 -9 -90 30 -205 59 -169 85 -248 103 -313 25 -85 36 -112 44 -102 12 16 47
41 38 28 -4 -7 -2 -13 3 -13 6 0 10 -3 9 -7 -6 -20 13 -74 23 -67 8 4 7 9 -2
15 -7 4 -11 11 -8 14 4 3 17 -3 30 -14 20 -17 21 -20 7 -21 -35 0 -18 -120 16
-120 12 0 6 36 -9 57 -12 17 -12 23 -1 32 11 9 15 7 20 -11 20 -75 -8 -139
-77 -174 l-30 -16 7 -69 c3 -38 14 -91 24 -117 22 -57 94 -154 127 -172 13 -7
28 -25 34 -40 8 -25 71 -81 71 -64 0 4 10 -3 22 -16 14 -15 23 -19 26 -11 5
15 -16 41 -43 51 -18 7 -18 9 -3 15 18 7 48 -14 48 -34 0 -6 8 -11 17 -11 15
0 14 3 -3 23 -11 12 -26 36 -34 52 -8 17 -21 39 -30 49 -11 15 -12 18 -1 15 7
-3 25 -25 38 -49 14 -25 31 -52 39 -61 15 -17 45 -154 42 -193 -1 -12 -8 -23
-15 -23 -6 0 -9 5 -6 10 3 6 1 7 -5 3 -18 -11 -14 -26 6 -26 13 0 14 -2 3 -9
-21 -14 -47 -2 -59 27 -10 25 -11 23 -7 -18 6 -59 118 -542 139 -599 20 -53
11 -66 -36 -57 -22 5 -52 26 -93 68 -56 57 -53 63 5 11 14 -13 28 -23 33 -23
4 0 6 -4 3 -8 -3 -5 1 -9 8 -9 16 0 10 23 -13 51 -9 11 -10 16 -3 12 20 -12
14 11 -13 42 -13 16 -21 33 -17 37 4 5 2 5 -4 2 -12 -7 -134 142 -134 162 0 6
-4 11 -9 11 -12 0 -72 141 -64 154 3 6 3 8 -2 4 -7 -7 -23 14 -37 53 -5 14 -2
16 19 10 21 -5 34 -25 67 -102 23 -52 57 -116 74 -141 18 -26 32 -51 32 -57 0
-6 5 -11 10 -11 13 0 13 12 -5 99 -20 94 -33 124 -86 199 -43 61 -63 74 -72
50 -3 -10 -9 -10 -23 -2 -24 14 -33 50 -10 41 9 -4 16 -2 16 3 0 6 -4 10 -9
10 -5 0 -8 6 -7 13 3 28 -18 19 -26 -12 l-9 -34 -31 29 c-43 41 -61 87 -53
138 5 31 4 38 -5 30 -14 -14 -15 -105 -1 -133 10 -17 8 -23 -13 -36 -19 -13
-36 -15 -83 -8 -57 8 -58 9 -67 46 -7 29 -6 45 7 72 9 20 17 55 17 79 0 29 7
52 21 70 20 25 20 29 6 43 -13 13 -19 14 -31 3 -9 -7 -16 -18 -15 -24 0 -7 2
-6 6 2 2 6 8 12 13 12 4 0 -3 -22 -16 -50 -27 -56 -29 -71 -12 -88 18 -18 -6
-40 -26 -23 -13 11 -12 18 6 59 27 62 27 127 1 153 -20 20 -20 20 -15 -10 2
-17 8 -28 13 -25 15 9 10 -33 -5 -45 -11 -9 -13 -4 -13 30 0 22 -5 45 -12 52
-18 18 -13 27 14 27 18 0 23 4 18 16 -4 12 -14 15 -41 10 -63 -10 -111 49
-124 153 -2 14 -9 26 -17 29 -8 3 -11 0 -7 -7 4 -6 5 -11 3 -11 -2 0 -17 18
-32 40 -19 28 -31 38 -38 31 -7 -7 4 -32 35 -78 66 -99 72 -131 16 -80 -44 39
-70 85 -63 109 7 23 7 23 -11 3 -42 -45 -106 -136 -101 -142 4 -3 26 2 50 11
23 9 50 16 59 16 27 0 161 -77 193 -110 26 -27 30 -38 28 -83 -1 -48 -5 -55
-43 -89 -51 -45 -60 -47 -61 -10 -1 63 -56 114 -140 131 -24 5 -52 12 -61 16
-12 4 -18 3 -18 -5 0 -6 9 -14 20 -17 20 -5 28 -23 11 -23 -5 0 -19 -16 -31
-35 -23 -38 -22 -87 4 -137 14 -26 14 -26 -38 -31 -63 -6 -88 8 -117 65 -19
37 -20 47 -10 91 12 54 14 97 5 121 -12 31 -23 16 -19 -26 4 -46 -5 -72 -15
-43 -6 17 -8 16 -12 -7 -3 -16 -1 -25 4 -22 5 4 8 -4 6 -17 -1 -12 -9 -24 -16
-27 -8 -2 -10 3 -6 15 5 17 5 17 -9 0 -13 -15 -19 -16 -36 -7 -27 14 -27 24
-1 17 28 -7 33 6 19 52 -11 38 -29 47 -29 15 0 -8 4 -13 9 -10 5 3 11 -8 13
-26 4 -27 3 -29 -7 -14 -10 13 -14 14 -18 4 -3 -7 -6 -1 -6 14 -1 15 -5 30
-11 33 -5 3 -10 15 -10 26 0 30 -13 23 -36 -20 l-22 -40 27 -24 c14 -13 58
-48 96 -77 39 -29 86 -68 106 -87 32 -30 42 -34 79 -31 28 2 44 -1 47 -10 3
-8 -2 -10 -14 -6 -17 5 -17 5 -1 -9 10 -7 28 -13 40 -11 13 1 27 3 32 3 5 1 3
8 -4 16 -7 9 -11 17 -9 19 2 2 13 -8 23 -22 11 -14 15 -22 9 -19 -12 8 -27
-22 -17 -32 4 -3 9 0 11 7 3 6 9 12 14 12 4 0 6 -7 3 -15 -4 -8 -14 -15 -23
-15 -24 0 -41 -14 -33 -26 5 -7 30 -8 77 -3 39 4 105 4 147 -1 116 -11 164
-58 192 -181 7 -33 -9 -47 -54 -50 -36 -3 -80 15 -80 31 0 5 -17 18 -39 29
-44 23 -89 16 -136 -21 -52 -41 -188 -16 -170 31 11 28 23 105 18 114 -3 4
-11 3 -19 -4 -10 -8 -14 -8 -14 -1 0 6 -6 9 -12 7 -17 -6 -45 12 -35 22 5 4
12 1 17 -7 7 -11 10 -11 10 -2 0 7 -12 18 -27 24 -16 7 -40 20 -54 30 -25 16
-27 16 -33 2 -4 -9 -4 -19 -1 -22 3 -3 5 0 5 6 0 7 4 12 8 12 4 0 8 -9 8 -20
0 -13 -5 -19 -13 -16 -7 3 -13 1 -13 -4 0 -6 3 -10 8 -11 36 -3 65 -9 70 -14
3 -3 -11 -4 -31 -1 -20 2 -37 0 -37 -5 0 -5 15 -10 33 -10 33 -2 62 -4 85 -7
6 -1 12 -12 12 -24 0 -18 -2 -20 -10 -8 -5 8 -24 15 -42 16 -92 6 -102 15 -95
86 6 68 13 59 -133 175 l-75 59 -32 -21 c-17 -11 -41 -37 -53 -58 l-22 -38
-23 26 c-13 14 -31 25 -39 25 -9 0 -23 16 -31 37 -18 44 -11 99 16 116 21 13
25 27 7 27 -20 0 -48 -32 -48 -57 0 -12 -3 -23 -6 -23 -3 0 -27 24 -53 53 -46
49 -53 53 -132 71 -46 10 -93 19 -105 20 -28 3 -44 15 -44 31 0 12 6 11 38 -2
52 -22 119 -41 174 -48 39 -6 49 -4 54 9 6 16 8 16 25 0 28 -25 35 -10 10 22
-12 15 -21 41 -21 60 0 18 -9 49 -21 69 -30 50 -21 67 27 53 32 -8 47 -6 92
12 64 27 107 23 156 -15 37 -28 49 -72 39 -147 -4 -29 -3 -39 5 -34 7 4 12 15
12 25 0 10 6 24 14 30 12 10 17 8 27 -11 7 -13 11 -25 10 -28 -1 -3 5 -6 14
-8 8 -2 18 4 21 12 7 18 35 21 51 5 7 -7 13 -7 17 0 4 5 -5 18 -19 27 -23 15
-27 15 -49 1 -23 -15 -24 -15 -29 5 -8 29 -2 36 43 49 35 11 43 10 59 -5 11
-10 25 -31 31 -47 7 -16 16 -29 21 -29 19 0 8 37 -22 73 -19 23 -25 37 -17 37
7 0 29 11 48 24 l35 23 23 -33 c12 -19 29 -34 36 -34 38 0 84 32 115 80 29 45
32 56 26 96 -7 46 -27 66 -48 45 -19 -19 -27 -13 -27 20 0 17 -5 39 -10 50
-10 17 -9 18 15 7 21 -9 31 -9 46 0 31 20 37 15 49 -44 14 -69 32 -59 19 11
-12 63 -21 72 -60 58 -34 -13 -59 -8 -59 12 0 7 11 37 25 67 27 57 31 101 15
144 -12 32 2 54 34 54 36 0 63 -27 75 -76 14 -56 48 -124 61 -124 15 0 12 17
-14 68 -13 26 -31 79 -40 117 -23 95 -32 115 -54 115 -10 0 -28 10 -40 23 -20
21 -20 25 -8 61 8 23 16 34 21 27 5 -9 10 -9 21 0 11 9 14 8 14 -4 0 -8 12
-24 26 -34 22 -16 28 -34 44 -121 20 -111 57 -205 71 -180 5 9 -2 33 -17 64
-23 48 -24 51 -8 82 8 18 24 37 35 42 10 6 19 17 19 25 0 27 38 56 64 49 31
-8 35 6 51 206 22 264 27 310 37 310 5 0 16 -17 24 -37z m2349 0 c-11 -65 -37
-168 -44 -174 -3 -3 -20 1 -38 10 l-31 16 56 92 c32 51 58 93 60 93 2 0 0 -17
-3 -37z m-2760 -57 c11 -7 32 -16 46 -19 30 -8 61 -33 77 -64 19 -34 14 -122
-8 -167 -20 -43 -70 -78 -70 -50 0 36 -33 5 -44 -41 -4 -16 -20 -43 -35 -60
-16 -16 -35 -43 -42 -60 -11 -23 -27 -34 -79 -51 -35 -13 -67 -21 -70 -19 -4
2 -15 37 -25 78 -18 73 -18 74 3 138 12 35 27 84 34 109 10 36 21 49 51 65 21
11 45 34 55 51 36 65 64 104 76 104 6 0 20 -6 31 -14z m2338 -36 c-3 -12 -8
-19 -11 -16 -5 6 5 36 12 36 2 0 2 -9 -1 -20z m-2839 -61 c3 -17 6 -56 6 -85
0 -55 23 -138 45 -164 24 -27 55 -90 55 -110 0 -11 -9 -37 -20 -57 -11 -21
-20 -42 -20 -48 0 -17 -58 -75 -75 -75 -9 0 -13 -4 -10 -10 11 -18 32 -11 63
21 17 18 42 33 56 34 23 3 25 1 20 -28 -11 -66 -14 -75 -44 -112 -16 -21 -30
-44 -30 -51 0 -9 -12 -14 -34 -14 l-34 0 -7 78 c-5 54 -17 104 -43 167 -21 51
-36 104 -35 125 1 19 22 85 48 145 40 95 46 117 43 163 -5 57 6 71 16 21z
m2860 -41 c18 -65 40 -108 56 -108 4 0 12 26 16 58 6 46 9 52 14 32 7 -23 34
-81 63 -137 6 -13 14 -23 17 -23 4 0 14 21 23 48 10 26 31 71 48 100 27 48 33
53 56 47 15 -3 34 -12 44 -19 17 -12 16 -17 -11 -97 -17 -46 -30 -85 -30 -87
0 -8 47 12 63 26 15 14 19 13 38 -4 27 -25 162 -301 188 -386 32 -107 43 -186
36 -260 -4 -37 -10 -68 -14 -68 -3 0 -22 39 -41 87 -37 91 -92 185 -129 217
-34 31 -34 12 0 -25 78 -83 176 -364 235 -674 20 -110 43 -150 133 -239 72
-70 87 -92 122 -180 23 -57 26 -159 9 -258 -26 -144 -160 -491 -196 -505 -8
-3 -26 7 -43 23 -34 36 -74 70 -126 109 -22 16 -107 95 -190 176 -234 229
-324 299 -385 299 -12 0 -55 -12 -97 -26 -41 -14 -76 -24 -78 -22 -3 2 18 32
46 66 66 81 173 170 216 178 18 3 33 10 33 15 0 11 -44 2 -83 -18 -15 -7 -59
-43 -97 -80 -39 -36 -70 -62 -70 -58 0 4 16 29 35 55 36 49 89 97 160 143 50
33 202 85 272 94 29 3 51 9 48 13 -6 10 -120 -7 -180 -27 -106 -34 -188 -84
-260 -157 -39 -39 -76 -87 -83 -106 -25 -67 -56 -122 -76 -135 -24 -15 -170
-65 -190 -65 -22 0 -73 67 -107 139 -53 111 -62 184 -63 486 0 149 2 304 5
345 4 45 0 115 -8 175 -9 64 -13 148 -10 235 4 122 7 142 35 212 40 98 71 148
141 222 58 61 206 176 226 176 7 0 18 -19 25 -42 12 -42 58 -117 72 -118 6 0
11 24 24 125 14 104 43 114 68 23z m-2920 -80 c-14 -34 -31 -74 -36 -88 -10
-24 -11 -24 -18 -5 -12 29 -12 95 1 95 5 0 7 4 4 10 -7 11 8 42 44 90 l26 35
3 -37 c2 -22 -7 -60 -24 -100z m3491 50 c7 -26 6 -27 -23 -16 -29 11 -29 13
-15 35 18 27 28 21 38 -19z m1671 29 c8 3 18 -6 26 -22 18 -41 -9 -51 -79 -29
-7 2 -13 12 -13 23 0 23 30 44 44 31 5 -5 15 -6 22 -3z m-4842 -66 c3 -4 -6
-43 -21 -86 -25 -76 -26 -77 -39 -53 -7 14 -20 28 -29 32 -21 8 -19 19 11 63
34 50 64 67 78 44z m3157 -7 c74 -22 177 -77 221 -119 36 -34 70 -115 85 -199
l5 -29 -41 32 c-22 17 -91 80 -153 139 -62 59 -130 122 -151 140 -21 18 -35
37 -32 42 8 12 1 13 66 -6z m797 -6 c9 -9 12 -9 12 1 0 15 37 5 58 -15 7 -8
17 -14 22 -14 4 0 24 -15 43 -34 25 -24 34 -40 30 -55 -5 -19 -11 -20 -67 -15
-112 9 -126 13 -126 34 0 12 7 20 17 20 14 0 14 3 -3 22 -16 18 -16 20 -3 15
13 -4 16 -1 11 16 -3 12 -10 25 -16 29 -7 5 -8 8 0 8 5 0 15 -5 22 -12z
m-4377 -38 c-13 -11 -29 -20 -37 -20 -8 0 -41 -27 -74 -60 -33 -33 -60 -57
-60 -53 0 19 57 76 112 112 65 43 100 55 59 21z m6414 -30 c3 -5 1 -10 -4 -10
-6 0 -11 5 -11 10 0 6 2 10 4 10 3 0 8 -4 11 -10z m-1952 -86 c71 -5 87 -9 87
-23 0 -9 -16 -70 -35 -136 -20 -66 -40 -136 -45 -155 l-9 -35 -142 3 c-128 3
-140 5 -134 20 4 9 32 87 62 172 31 85 61 158 67 162 6 5 22 6 36 3 14 -2 64
-7 113 -11z m797 6 c23 0 42 -32 34 -54 -3 -9 -15 -16 -26 -16 -10 0 -17 -4
-14 -9 4 -5 -3 -7 -14 -4 -11 3 -20 11 -20 18 0 8 -9 17 -20 20 -23 7 -27 25
-5 25 8 0 15 7 15 16 0 11 5 14 16 10 9 -3 24 -6 34 -6z m1040 -40 c39 -20 56
-37 47 -47 -9 -8 -77 29 -77 42 0 7 -6 16 -12 18 -7 3 -9 6 -5 6 4 1 25 -8 47
-19z m-1462 -7 c39 -6 40 9 -15 -188 -20 -71 -42 -138 -48 -148 -12 -17 -15
-12 -35 40 -23 63 -90 288 -90 305 0 10 108 5 188 -9z m-5017 -20 c-12 -20
-14 -14 -5 12 4 9 9 14 11 11 3 -2 0 -13 -6 -23z m5146 -21 c46 -18 56 -32 22
-32 -11 0 -28 -4 -37 -9 -9 -4 -32 -11 -49 -14 -28 -6 -33 -4 -33 13 0 34 22
71 39 65 9 -3 35 -13 58 -23z m-4918 -39 c8 -27 19 -59 26 -73 7 -14 16 -35
20 -48 l7 -24 -94 2 c-51 2 -108 -2 -125 -8 -36 -11 -36 -11 -34 33 4 67 19
90 83 128 85 50 100 49 117 -10z m-270 -64 l-32 -94 18 -50 c23 -67 95 -183
156 -249 45 -50 49 -58 44 -89 -7 -34 -8 -35 -44 -30 -34 5 -39 2 -44 -18 -6
-22 -10 -20 -67 39 -68 69 -116 100 -132 84 -6 -6 -15 -65 -21 -131 -6 -67
-13 -117 -17 -112 -19 32 28 323 88 536 24 82 73 217 78 212 2 -2 -10 -46 -27
-98z m6811 82 c0 -6 -4 -13 -10 -16 -5 -3 -10 1 -10 9 0 9 5 16 10 16 6 0 10
-4 10 -9z m-1516 -27 c6 -16 -9 -44 -24 -44 -10 0 -21 41 -14 52 9 14 32 9 38
-8z m-4674 -4 c13 -8 12 -11 -5 -24 -11 -8 -31 -23 -44 -35 -19 -17 -32 -20
-60 -15 -20 4 -37 8 -39 9 -2 2 4 19 12 39 15 35 17 36 68 36 29 0 60 -5 68
-10z m4628 -28 c4 -25 -26 -65 -62 -84 -25 -13 -36 4 -36 59 0 45 9 52 65 50
23 -2 31 -7 33 -25z m-4399 -66 c19 -40 16 -88 -10 -153 -29 -73 -26 -70 -50
-47 -11 12 -29 56 -40 100 -12 43 -25 85 -31 92 -15 18 -58 15 -77 -7 -9 -10
-26 -21 -38 -25 -13 -4 -26 -19 -30 -34 -6 -26 9 -160 22 -194 5 -12 2 -18 -6
-18 -7 0 -22 -8 -33 -19 -17 -15 -30 -17 -71 -12 -47 6 -50 8 -58 43 -7 28 -5
42 7 59 16 24 18 22 30 -33 11 -48 25 -31 19 21 -3 31 0 68 10 102 9 30 18 66
22 81 3 17 17 34 35 43 16 8 41 26 56 40 19 18 30 22 39 15 8 -7 29 -6 66 3
51 13 56 13 89 -8 19 -12 41 -34 49 -49z m4290 -23 c1 -14 -15 -37 -40 -60
-23 -21 -48 -44 -56 -52 -23 -22 -24 -7 -3 54 11 32 20 70 20 85 0 32 18 57
45 62 16 3 21 -4 27 -32 4 -19 7 -45 7 -57z m-5084 60 c-4 -16 -8 -38 -11 -50
-6 -33 -22 -28 -17 5 4 27 23 72 30 72 2 0 1 -12 -2 -27z m649 -85 c8 -18 21
-59 30 -90 9 -31 32 -79 51 -106 31 -45 35 -59 40 -139 4 -64 2 -95 -7 -113
-31 -58 -68 -24 -110 100 -24 72 -30 154 -16 251 10 73 4 109 -17 109 -11 0
-12 -6 -7 -22 12 -33 -9 -218 -24 -218 -19 0 -42 60 -49 131 l-7 66 43 31 c24
17 47 31 52 31 4 1 14 -14 21 -31z m5548 -50 c-11 -11 -160 -24 -150 -13 10
10 140 33 151 27 5 -2 5 -8 -1 -14z m-4509 -283 c44 -104 102 -246 129 -315
27 -69 53 -129 58 -135 9 -12 34 -113 50 -200 24 -136 61 -594 45 -550 -4 11
-18 142 -40 380 -19 201 -40 307 -75 382 -17 35 -30 65 -30 69 0 4 -15 41 -34
83 -49 110 -206 498 -206 508 1 17 26 -37 103 -222z m-1345 134 c1 -30 -14
-44 -42 -37 -13 3 -13 7 -1 36 18 41 42 42 43 1z m272 -76 c0 -16 9 -52 20
-82 19 -50 20 -55 4 -72 -9 -10 -50 -32 -92 -50 -42 -17 -86 -38 -98 -46 l-22
-14 5 63 c8 91 72 218 110 218 11 0 8 -8 -11 -31 -14 -17 -26 -36 -26 -42 0
-7 18 9 41 36 46 54 69 60 69 20z m-250 1 c7 -7 27 -14 44 -14 65 0 64 -7 -7
-125 -7 -11 -13 -22 -14 -24 -1 -2 -16 7 -33 19 -42 30 -98 36 -156 16 -26 -9
-49 -16 -51 -16 -15 0 23 115 49 147 14 18 153 16 168 -3z m2234 -114 c4 -32
2 -128 -5 -212 -16 -212 -6 -516 21 -622 20 -80 70 -182 110 -224 11 -12 18
-26 15 -31 -6 -10 -74 -26 -197 -46 -76 -12 -79 -12 -91 9 -9 15 -12 93 -11
276 0 213 4 279 22 400 31 197 106 510 123 510 4 0 9 -27 13 -60z m-2187 -82
c-3 -8 -6 -5 -6 6 -1 11 2 17 5 13 3 -3 4 -12 1 -19z m1233 -206 c0 -4 -10 -9
-22 -9 -18 -2 -20 0 -8 7 18 12 30 13 30 2z m-1392 -273 c61 -41 112 -77 112
-81 0 -9 -97 51 -150 92 -19 15 -50 35 -67 44 -18 9 -55 35 -81 59 -27 23 -74
62 -105 87 -31 25 -56 48 -57 52 0 4 53 -34 118 -85 65 -51 169 -127 230 -168z
m1419 244 c2 -5 -10 -10 -27 -11 -32 -1 -41 14 -12 21 23 6 35 3 39 -10z
m-741 -18 c46 -36 71 -103 55 -155 -14 -47 -25 -49 -76 -14 -38 26 -54 22 -55
-13 0 -40 -56 24 -66 76 -9 42 13 89 50 112 40 25 53 24 92 -6z m717 -11 c-7
-3 -9 -12 -6 -21 4 -11 2 -14 -5 -9 -18 11 -14 36 6 35 9 0 12 -3 5 -5z m-489
-18 c-8 -20 -34 -29 -34 -11 0 7 8 16 18 18 9 3 18 5 19 6 1 0 0 -5 -3 -13z
m-38 -51 c-3 -8 -1 -15 3 -15 5 0 12 6 14 13 4 9 6 9 6 0 1 -17 -19 -27 -31
-15 -6 6 -7 15 -4 21 10 16 19 13 12 -4z m-4 -62 c31 -30 38 -44 38 -76 l0
-39 -47 53 c-27 28 -47 59 -45 67 2 9 -1 11 -10 6 -10 -6 -10 -4 1 9 18 23 20
22 63 -20z m-195 -63 c20 0 31 -24 22 -48 -11 -30 -28 -24 -56 17 -26 38 -21
72 7 46 9 -8 21 -15 27 -15z m441 -142 c15 -66 93 -223 129 -263 51 -55 133
-160 133 -169 0 -6 -9 0 -20 11 -11 12 -35 34 -55 48 -82 63 -262 402 -221
419 6 2 13 5 16 5 3 1 11 -23 18 -51z m-68 35 c0 -5 4 -25 9 -45 l9 -38 -27
19 c-14 11 -37 31 -50 45 l-24 26 41 0 c23 0 42 -3 42 -7z m-843 -55 c8 -14
-55 23 -70 40 -6 8 6 4 26 -8 20 -12 40 -27 44 -32z m193 43 c0 -5 10 -12 23
-14 15 -4 13 -5 -7 -4 -27 2 -52 27 -27 27 6 0 11 -4 11 -9z m-140 -83 c0 -12
-28 3 -34 18 -4 11 -2 12 14 1 11 -6 20 -15 20 -19z m76 -64 l59 -56 -51 41
c-50 40 -81 71 -71 71 2 0 31 -25 63 -56z m134 46 c0 -5 -2 -10 -4 -10 -3 0
-8 5 -11 10 -3 6 -1 10 4 10 6 0 11 -4 11 -10z m781 -88 c7 -15 26 -46 42 -70
16 -24 26 -46 23 -49 -7 -7 -37 17 -32 26 2 3 -2 15 -10 26 -8 10 -14 15 -14
10 0 -5 -10 6 -23 25 -24 35 -57 99 -57 108 0 12 58 -51 71 -76z m-437 -11
c10 -9 25 -30 32 -48 13 -29 117 -108 203 -153 32 -16 201 -69 201 -62 0 8
-68 72 -77 72 -4 0 -43 36 -85 79 -65 66 -78 85 -78 112 l0 33 38 -45 c48 -57
97 -103 147 -137 79 -54 164 -125 159 -134 -3 -4 0 -8 6 -8 6 0 40 -29 76 -64
66 -63 66 -63 48 -86 -18 -21 -50 -38 -86 -45 -9 -2 -63 24 -120 59 -57 34
-126 71 -155 83 -53 22 -130 74 -219 150 -28 24 -54 43 -56 43 -9 0 -28 -54
-25 -74 3 -29 -22 -31 -32 -3 -13 34 -60 70 -76 57 -9 -8 -18 6 -33 55 -12 35
-19 71 -16 80 4 9 23 27 42 40 39 26 72 25 106 -4z m-269 -116 c33 -30 63 -55
66 -55 4 0 10 -8 13 -17 6 -15 5 -15 -11 -2 -10 9 -46 39 -80 67 -34 28 -72
60 -85 72 l-23 22 30 -16 c17 -8 57 -40 90 -71z m2466 -15 c22 -12 137 -115
255 -230 119 -116 220 -210 225 -210 5 0 9 -4 9 -8 0 -9 -161 -44 -272 -61
-66 -9 -88 -8 -379 14 -173 13 -244 14 -360 6 -79 -6 -151 -11 -160 -11 -9 0
-26 -10 -37 -22 -100 -113 -192 -219 -213 -248 -49 -64 -74 -89 -101 -99 -16
-6 -28 -8 -28 -4 0 3 16 35 35 70 39 70 43 91 20 100 -14 5 -14 8 0 29 8 13
15 32 15 42 0 10 7 33 16 51 28 57 29 102 1 157 -13 27 -28 74 -32 103 -6 41
-15 62 -37 84 -29 30 -30 30 -119 24 -117 -9 -121 9 -8 46 101 34 115 34 199
-3 77 -34 103 -36 157 -16 21 8 77 19 124 25 97 11 226 46 345 93 124 48 246
87 277 88 15 0 46 -9 68 -20z m-1626 -62 l56 -73 -60 65 c-54 58 -70 80 -57
80 2 0 29 -33 61 -72z m-637 -7 c15 -9 44 -61 35 -61 -4 0 -15 8 -26 18 -12 9
-17 11 -12 3 5 -9 3 -12 -6 -9 -8 2 -15 17 -17 31 -3 28 4 33 26 18z m-17 -73
c31 -25 84 -62 118 -83 71 -44 79 -55 19 -24 -55 27 -143 92 -188 138 -39 40
-30 34 51 -31z m1009 -85 c0 -7 -9 -13 -20 -13 -23 0 -24 4 -9 32 9 17 13 18
20 7 5 -8 9 -20 9 -26z m205 -19 c0 -6 -20 -28 -45 -49 l-45 -37 -80 6 c-109
8 -182 20 -170 27 9 6 170 51 220 63 37 8 120 1 120 -10z m45 -101 c0 -12 11
-46 24 -75 21 -46 23 -60 15 -101 -17 -91 -28 -98 -131 -76 -56 12 -259 110
-289 140 -18 18 -35 98 -26 122 4 11 26 11 124 -2 65 -8 130 -11 144 -8 14 4
45 22 70 42 l44 35 12 -28 c7 -15 12 -37 13 -49z m-990 47 c18 -12 2 -12 -25
0 -13 6 -15 9 -5 9 8 0 22 -4 30 -9z m567 -41 c-4 -34 -1 -66 9 -97 15 -43 15
-47 -2 -59 -24 -17 -78 -27 -110 -19 -27 7 -63 71 -64 113 0 23 33 53 60 53 8
1 31 14 50 30 52 45 64 40 57 -21z m-437 1 c13 -9 13 -10 0 -9 -8 0 -24 4 -35
9 l-20 9 20 0 c11 0 27 -4 35 -9z m129 -36 c12 -11 -9 -10 -44 2 l-40 13 40
-6 c22 -3 42 -7 44 -9z m128 -15 c-3 -11 1 -42 10 -68 l15 -47 -41 -64 c-23
-35 -41 -72 -41 -84 0 -12 18 10 45 57 25 42 48 77 51 77 3 0 14 -5 25 -11 14
-7 17 -14 11 -22 -6 -7 -15 -55 -21 -107 -12 -98 -22 -125 -84 -222 -56 -87
-92 -89 -171 -10 -49 49 -96 123 -96 152 0 8 -22 42 -50 75 -53 64 -61 85 -32
85 31 1 105 40 188 100 80 58 168 110 187 110 5 0 7 -9 4 -21z m-117 -13 c0
-2 -44 -33 -98 -69 -92 -63 -157 -95 -168 -84 -8 8 92 93 133 113 31 15 61 25
131 43 1 1 2 -1 2 -3z m2360 -161 c7 -8 11 -18 8 -20 -11 -11 -188 15 -252 38
l-69 23 59 13 c32 7 79 19 104 25 44 12 46 12 91 -25 25 -21 52 -45 59 -54z
m-1998 60 c0 -14 -29 -31 -38 -22 -9 8 16 39 28 35 5 -2 10 -8 10 -13z m88
-42 c28 -15 50 -30 50 -34 0 -4 -13 -12 -29 -19 -16 -6 -40 -23 -53 -37 -12
-14 -36 -31 -51 -40 -26 -13 -31 -12 -60 6 -18 11 -49 30 -70 41 -33 18 -38
25 -35 53 3 28 7 33 38 37 19 3 51 1 72 -4 28 -8 41 -6 60 7 12 9 24 16 26 16
1 1 25 -11 52 -26z m637 -274 c-1 -4 -18 -1 -37 6 -19 7 -61 21 -93 32 -55 17
-57 19 -51 46 8 39 -10 33 -25 -8 -13 -36 -36 -65 -52 -65 -5 0 -9 4 -9 9 0
11 73 102 139 173 25 27 50 57 55 66 7 12 18 -19 42 -118 19 -74 32 -138 31
-141z m-470 197 c4 -3 -64 -73 -94 -97 -30 -25 -37 -27 -135 -25 -57 1 -109 5
-115 9 -7 5 -13 22 -13 38 0 29 1 30 22 15 34 -24 91 -20 125 8 15 13 48 37
72 53 44 30 45 30 90 15 25 -8 47 -15 48 -16z m113 -12 c0 -7 -101 -131 -150
-184 -34 -38 -37 -38 -122 -43 -102 -6 -115 1 -124 61 l-7 42 37 0 c26 0 35
-4 30 -12 -5 -8 2 -9 26 -5 18 4 46 7 63 7 25 0 44 13 99 70 62 64 72 70 108
70 22 0 40 -3 40 -6z m-32 -151 c-19 -32 -41 -73 -48 -91 -17 -44 -43 -60
-112 -68 -65 -8 -108 11 -108 46 0 18 7 20 63 20 34 0 67 4 73 8 6 4 35 35 63
70 47 56 88 87 100 76 2 -2 -12 -30 -31 -61z m147 -93 c18 -40 18 -41 -2 -68
-11 -15 -36 -31 -57 -36 -36 -9 -39 -8 -84 37 l-47 47 31 0 c22 0 44 11 75 39
49 44 56 42 84 -19z m549 -366 c33 -8 79 -22 101 -29 169 -59 210 -76 213 -85
2 -5 8 -10 13 -10 6 0 44 -16 85 -35 41 -19 79 -35 84 -35 13 0 175 -123 216
-164 52 -52 104 -117 104 -131 0 -22 -55 -1 -114 43 -29 22 -70 48 -91 59 -22
11 -53 27 -70 36 -64 35 -185 77 -221 77 -15 0 -38 20 -74 64 -80 99 -158 153
-290 204 -65 25 -43 28 44 6z m3766 -126 l0 -103 -33 -19 c-84 -49 -152 -79
-276 -121 -73 -25 -134 -44 -135 -43 -1 2 -9 32 -18 68 -9 36 -19 72 -23 81
-5 14 7 21 61 39 77 24 172 68 224 101 19 13 32 19 28 15 -6 -7 10 -60 41
-139 6 -16 15 -26 20 -23 10 7 -13 106 -35 148 l-14 28 72 34 c40 19 76 35 81
35 4 1 7 -45 7 -101z"/>
<path d="M5160 6930 c-24 -8 -23 -8 8 -9 17 -1 32 4 32 9 0 11 -5 11 -40 0z"/>
<path d="M7120 5840 c0 -5 5 -10 11 -10 5 0 7 5 4 10 -3 6 -8 10 -11 10 -2 0
-4 -4 -4 -10z"/>
<path d="M1718 3331 c9 -16 19 -28 21 -25 6 6 -21 54 -30 54 -5 0 0 -13 9 -29z"/>
<path d="M1673 3338 c-5 -7 -19 -38 -31 -68 l-22 -56 30 -59 c23 -44 27 -61
18 -67 -20 -12 -22 -11 -43 35 -20 43 -42 52 -38 16 2 -11 -1 -17 -7 -14 -6 3
-10 1 -10 -5 0 -7 7 -10 15 -7 8 4 17 2 20 -4 11 -17 14 -68 4 -74 -11 -7 -12
-55 -1 -55 4 0 14 16 21 36 10 28 23 41 56 55 27 12 51 32 64 54 11 20 32 40
45 45 24 9 24 10 10 40 -19 36 -30 38 -38 6 -5 -19 -12 -23 -41 -21 -44 2 -50
8 -30 29 19 19 45 21 45 4 0 -6 3 -9 6 -5 3 3 3 15 -1 26 -6 19 -8 20 -22 6
-8 -9 -18 -14 -20 -11 -3 3 2 13 11 22 16 15 16 18 0 35 -22 24 -28 24 -21 -1
3 -13 0 -20 -9 -20 -10 0 -11 -6 -4 -24 5 -14 5 -27 -1 -33 -11 -11 -1 -45 11
-38 4 3 10 -5 14 -18 8 -31 7 -37 -5 -37 -6 0 -9 7 -5 15 3 8 -1 18 -8 22 -7
5 -20 23 -29 41 -16 34 -10 64 18 84 5 4 6 10 3 14 -4 4 -3 15 3 25 11 21 6
25 -8 7z m49 -170 c-7 -7 -12 -8 -12 -2 0 14 12 26 19 19 2 -3 -1 -11 -7 -17z"/>
<path d="M1661 3234 c0 -11 3 -14 6 -6 3 7 2 16 -1 19 -3 4 -6 -2 -5 -13z"/>
<path d="M1965 3234 c4 -10 8 -32 8 -49 -1 -25 0 -26 4 -6 8 38 22 4 16 -38
l-4 -36 21 24 c19 22 19 25 4 42 -9 10 -13 23 -9 28 3 6 -1 11 -9 11 -9 0 -16
6 -16 14 0 8 -5 18 -12 22 -8 5 -9 2 -3 -12z"/>
<path d="M1562 3080 c0 -14 2 -19 5 -12 2 6 2 18 0 25 -3 6 -5 1 -5 -13z"/>
<path d="M1980 3079 c0 -11 5 -17 10 -14 13 8 13 -1 0 -25 -7 -14 -6 -20 6
-24 12 -4 15 -2 10 9 -7 18 5 20 22 3 8 -8 12 -8 12 -1 0 6 -7 13 -15 17 -8 3
-15 14 -15 25 0 10 -7 21 -15 25 -10 4 -15 -1 -15 -15z"/>
<path d="M1580 3080 c0 -5 4 -10 9 -10 6 0 13 5 16 10 3 6 -1 10 -9 10 -9 0
-16 -4 -16 -10z"/>
<path d="M1575 3040 c3 -5 8 -10 11 -10 2 0 4 5 4 10 0 6 -5 10 -11 10 -5 0
-7 -4 -4 -10z"/>
<path d="M1773 2913 c-8 -21 -17 -56 -19 -78 -4 -36 -2 -34 19 25 21 56 27 65
48 64 13 -1 32 -4 42 -9 10 -4 17 -3 17 4 0 13 -41 31 -71 31 -14 0 -25 -12
-36 -37z"/>
<path d="M1886 2809 c-3 -8 -7 -30 -8 -49 -3 -30 -6 -35 -25 -33 -13 2 -23 -1
-23 -5 0 -10 77 -62 93 -63 7 0 1 -5 -13 -10 -23 -9 -23 -11 -7 -20 13 -8 22
-7 33 1 20 17 18 36 -7 54 -13 9 -18 19 -14 27 6 8 4 10 -4 4 -10 -5 -12 5
-10 44 3 50 -6 77 -15 50z"/>
<path d="M1239 2741 c-31 -25 -20 -36 17 -16 16 8 35 15 42 15 6 0 12 5 12 10
0 17 -47 11 -71 -9z"/>
<path d="M1090 2665 c0 0 10 -9 22 -19 18 -15 20 -16 15 -2 -7 19 -3 20 25 5
16 -9 19 -8 16 3 -3 7 -20 13 -41 13 -21 0 -37 0 -37 0z"/>
<path d="M1740 2662 c0 -7 4 -12 9 -12 5 0 11 -8 13 -17 2 -12 6 -14 10 -7 4
6 -1 19 -12 29 -12 10 -20 13 -20 7z"/>
<path d="M1070 2640 c0 -5 5 -10 10 -10 6 0 10 5 10 10 0 6 -4 10 -10 10 -5 0
-10 -4 -10 -10z"/>
<path d="M1137 2626 c-4 -10 -5 -21 -2 -24 9 -9 17 6 13 25 -3 17 -4 17 -11
-1z"/>
<path d="M2211 2503 c0 -4 4 -17 8 -27 6 -15 9 -16 13 -5 3 8 -1 20 -8 27 -8
7 -14 9 -13 5z"/>
<path d="M2318 2465 c-4 -4 -3 -18 3 -32 12 -32 12 -33 -7 -33 -12 0 -14 -3
-6 -13 8 -9 8 -20 -2 -38 -7 -13 -10 -31 -8 -38 6 -19 41 58 41 89 -1 36 -13
73 -21 65z"/>
<path d="M1730 2450 c0 -5 5 -10 11 -10 5 0 7 5 4 10 -3 6 -8 10 -11 10 -2 0
-4 -4 -4 -10z"/>
<path d="M2260 2451 c-8 -6 -18 -7 -24 -4 -5 4 -7 -1 -3 -11 4 -10 7 -24 7
-32 0 -8 6 -11 16 -7 10 4 17 -1 21 -16 6 -24 23 -29 23 -6 0 8 -4 15 -10 15
-6 0 -6 9 0 26 15 38 1 54 -30 35z m30 -11 c0 -5 -2 -10 -4 -10 -3 0 -8 5 -11
10 -3 6 -1 10 4 10 6 0 11 -4 11 -10z"/>
<path d="M1320 2326 c0 -2 7 -9 15 -16 9 -7 15 -8 15 -2 0 5 -7 12 -15 16 -8
3 -15 4 -15 2z"/>
<path d="M1367 2303 c-12 -12 -7 -22 8 -17 8 4 15 10 15 15 0 11 -14 12 -23 2z"/>
<path d="M3975 2152 c22 -9 111 -51 199 -94 87 -44 161 -76 164 -73 3 3 3 7 1
9 -11 10 -294 149 -330 161 -56 20 -84 17 -34 -3z"/>
<path d="M1930 2181 c0 -6 4 -13 10 -16 6 -3 7 1 4 9 -7 18 -14 21 -14 7z"/>
<path d="M2440 1510 c40 -30 173 -101 184 -97 6 2 -12 16 -39 32 -28 15 -72
40 -98 56 -55 33 -85 39 -47 9z"/>
<path d="M3660 596 c0 -2 7 -7 16 -10 8 -3 12 -2 9 4 -6 10 -25 14 -25 6z"/>
<path d="M355 6670 c3 -5 10 -10 16 -10 5 0 9 5 9 10 0 6 -7 10 -16 10 -8 0
-12 -4 -9 -10z"/>
<path d="M340 6150 c-8 -5 -10 -10 -5 -10 6 0 17 5 25 10 8 5 11 10 5 10 -5 0
-17 -5 -25 -10z"/>
<path d="M448 6122 c11 -7 11 -10 -2 -15 -35 -14 -15 -27 33 -21 29 3 59 0 70
-6 18 -9 21 -8 21 9 0 14 -9 20 -37 25 -21 4 -51 9 -68 12 -20 3 -26 2 -17 -4z"/>
<path d="M398 6103 c7 -3 16 -2 19 1 4 3 -2 6 -13 5 -11 0 -14 -3 -6 -6z"/>
<path d="M365 6080 c-3 -6 1 -7 9 -4 18 7 21 14 7 14 -6 0 -13 -4 -16 -10z"/>
<path d="M506 6061 c-8 -13 33 -31 71 -31 18 0 24 -4 19 -15 -3 -8 4 -21 16
-29 11 -8 17 -19 13 -25 -4 -7 5 -11 26 -11 27 0 30 2 19 15 -10 12 -9 15 6
16 11 0 3 7 -19 16 -25 10 -36 20 -33 30 9 23 -105 56 -118 34z"/>
<path d="M245 6019 c-4 -6 -5 -12 -2 -15 2 -3 7 2 10 11 7 17 1 20 -8 4z"/>
<path d="M1606 5945 c4 -8 8 -15 10 -15 2 0 4 7 4 15 0 8 -4 15 -10 15 -5 0
-7 -7 -4 -15z"/>
<path d="M290 5920 c-9 -6 -10 -10 -3 -10 6 0 15 5 18 10 8 12 4 12 -15 0z"/>
<path d="M1702 5620 c7 -10 14 -18 15 -16 6 6 -9 36 -18 36 -5 0 -4 -9 3 -20z"/>
<path d="M191 5614 c0 -11 3 -14 6 -6 3 7 2 16 -1 19 -3 4 -6 -2 -5 -13z"/>
<path d="M1801 5344 c0 -11 3 -14 6 -6 3 7 2 16 -1 19 -3 4 -6 -2 -5 -13z"/>
<path d="M1841 5240 c0 -8 4 -22 9 -30 12 -18 12 -2 0 25 -6 13 -9 15 -9 5z"/>
<path d="M1860 5158 c0 -9 5 -20 10 -23 13 -8 13 5 0 25 -8 13 -10 13 -10 -2z"/>
<path d="M1875 5110 c3 -5 8 -10 11 -10 2 0 4 5 4 10 0 6 -5 10 -11 10 -5 0
-7 -4 -4 -10z"/>
<path d="M820 4911 c0 -5 5 -13 10 -16 6 -3 10 -2 10 4 0 5 -4 13 -10 16 -5 3
-10 2 -10 -4z"/>
<path d="M850 4810 c0 -5 5 -10 11 -10 5 0 7 5 4 10 -3 6 -8 10 -11 10 -2 0
-4 -4 -4 -10z"/>
<path d="M1473 4238 c-15 -20 -25 -38 -20 -38 3 0 12 11 21 25 17 26 16 35 -1
13z"/>
<path d="M1350 4065 c-7 -9 -8 -15 -2 -15 5 0 12 7 16 15 3 8 4 15 2 15 -2 0
-9 -7 -16 -15z"/>
<path d="M1379 4063 c-13 -16 -12 -17 4 -4 9 7 17 15 17 17 0 8 -8 3 -21 -13z"/>
<path d="M1135 3970 c-3 -5 -1 -10 4 -10 6 0 11 5 11 10 0 6 -2 10 -4 10 -3 0
-8 -4 -11 -10z"/>
<path d="M1210 3926 c0 -2 7 -7 16 -10 8 -3 12 -2 9 4 -6 10 -25 14 -25 6z"/>
<path d="M1130 3809 c0 -5 5 -7 10 -4 6 3 10 8 10 11 0 2 -4 4 -10 4 -5 0 -10
-5 -10 -11z"/>
<path d="M3953 961 c-29 -15 -77 -47 -107 -70 -67 -52 -206 -196 -206 -213 0
-7 30 18 66 56 76 78 201 182 268 221 25 15 46 29 46 31 0 8 -17 2 -67 -25z"/>
<path d="M2050 602 c0 -17 59 -90 92 -115 18 -13 80 -43 138 -67 126 -51 248
-111 310 -153 37 -25 202 -166 220 -188 42 -52 74 -80 87 -77 22 4 -161 188
-262 263 -69 51 -261 150 -340 175 -22 7 -70 28 -106 46 -51 25 -73 43 -95 78
-27 43 -44 57 -44 38z"/>
<path d="M7101 314 c-1 -19 61 -264 76 -304 5 -13 7 -13 10 1 4 18 -24 134
-61 249 -13 41 -25 65 -25 54z"/>
</g>
</svg>
